<svg
  height="300px"
  width="300px"
  fill="#ccc"
  xmlns="http://www.w3.org/2000/svg"
  xmlns:xlink="http://www.w3.org/1999/xlink"
  version="1.1"
  x="0px"
  y="0px"
  viewBox="0 0 512 512"
  enable-background="new 0 0 512 512"
  xml:space="preserve">
  <g>
    <path
      d="M409.8,274.5c-14.3-44.9-30.5-95.7-53.5-123c-35.4-41.9-66.3-45.3-100.3-45.3s-64.9,3.4-100.3,45.3
      c-23,27.3-39.2,78.2-53.5,123c-8.7,27.4-25,78.5-33.7,78.5v17c20.2,0,31-31,49.9-90.4c13.8-43.4,29.5-92.5,50.3-117.2
      c30.8-36.4,55.6-39.3,87.2-39.3s56.5,2.8,87.2,39.3c20.8,24.7,36.5,73.8,50.3,117.2c18.9,59.4,29.7,90.4,49.9,90.4v-17
      C434.8,353,418.5,301.9,409.8,274.5z"/>
    <ellipse cx="153.7" cy="242.2" rx="8.5" ry="17" />
    <ellipse cx="341.2" cy="242.2" rx="8.5" ry="17"/>
    <path
      d="M277.3,216.6c-7.4,0-14.5,1.4-21.3,4.3c-6.8-2.8-13.9-4.3-21.3-4.3c-30.5,0-55.4,24.9-55.4,55.4
      c0,24.5,16.3,45.8,39.4,52.8c8.6,24.8,25.1,57.8,29.3,66.1l7.6,14.9l7.6-14.9c4.2-8.3,20.6-41,29.2-65.8
      c23.6-6.7,40.4-28,40.4-53.1C332.7,241.5,307.9,216.6,277.3,216.6z
      M255.6,367.8c-11.8-24.6-25.1-55.7-25.1-65.5
      c0-13.9,11.3-25.1,25.1-25.1s25.1,11.3,25.1,25.1C280.7,312.1,267.4,343.1,255.6,367.8z
      M297.6,304.5c0.1-0.8,0.2-1.6,0.2-2.2
      c0-23.3-18.9-42.2-42.2-42.2c-23.3,0-42.2,18.9-42.2,42.2c0,0.5,0.1,1.1,0.1,1.6c-10.4-7-17.2-18.8-17.2-31.9
      c0-21.1,17.2-38.4,38.4-38.4c6.1,0,11.9,1.4,17.4,4.2l3.9,2l3.9-2c5.5-2.8,11.3-4.2,17.4-4.2c21.1,0,38.4,17.2,38.4,38.4
      C315.7,285.6,308.5,297.7,297.6,304.5z"/>
  </g>
</svg>
